<?xml version="1.0" encoding="utf-8"?>
<!-- Generator: Adobe Illustrator 22.1.0, SVG Export Plug-In . SVG Version: 6.00 Build 0)  -->
<svg version="1.1" id="Ebene_1" xmlns="http://www.w3.org/2000/svg" xmlns:xlink="http://www.w3.org/1999/xlink" x="0px" y="0px"
	 viewBox="0 0 24 25.4" style="enable-background:new 0 0 24 25.4;" xml:space="preserve">
<style type="text/css">
	.Gr√_x00BC_n_x0020_bogenf√_x00B6_rmig{fill:url(#SVGID_1_);stroke:#FFFFFF;stroke-width:0.25;stroke-miterlimit:1;}
	.st0{fill:#FF6400;}
</style>
<linearGradient id="SVGID_1_" gradientUnits="userSpaceOnUse" x1="-49.5752" y1="127.4287" x2="-48.8681" y2="126.7216">
	<stop  offset="0" style="stop-color:#259E2E"/>
	<stop  offset="0.9831" style="stop-color:#1C381D"/>
</linearGradient>
<path class="st0" d="M12,1c2.2,0,4.2,0.5,5.9,1.5L19.7,0l2.1,1.5l-1.7,2.4c2.4,2.1,4,5.1,4,8.7c0,6.8-5.4,11.7-12,11.7
	c-2,0-4-0.5-5.6-1.3l-1.7,2.4l-2.1-1.5l1.6-2.3c-2.6-2.1-4.2-5.3-4.2-9C0,5.9,5.4,1,12,1z M6.6,18.3l9.2-12.7
	C14.6,5,13.3,4.7,12,4.7c-4.2,0-7.7,3.3-7.7,7.9C4.4,14.9,5.2,16.9,6.6,18.3z M17.7,7.2l-9,12.6c1,0.5,2.2,0.7,3.3,0.7
	c4.2,0,7.7-3.3,7.7-8C19.7,10.4,18.9,8.6,17.7,7.2z"/>
</svg>
