<svg id="Ebene_1" data-name="Ebene 1" xmlns="http://www.w3.org/2000/svg" viewBox="0 0 190.59 53.34"><defs><style>.cls-1{fill:#323232;}.cls-2{fill:#d4d5c4;}.cls-3{fill:#ff6400;}</style></defs><title>blomqvist_Logo_RGB_background</title><rect class="cls-1" x="32.28" y="4.36" width="29.09" height="32.97"/><path class="cls-2" d="M13.17,52.49c.85,0,2.68.31,2.68,1.4v.86h-.92V54.2c0-.62-1.07-.85-1.72-.85a2.57,2.57,0,0,0-2.62,2.71,2.68,2.68,0,0,0,2.68,2.85c.5,0,1.75-.18,1.75-.83v-.55H16v.86c0,1-1.76,1.39-2.74,1.39A3.59,3.59,0,0,1,9.56,56.1,3.53,3.53,0,0,1,13.17,52.49Z" transform="translate(-9.56 -8.42)"/><path class="cls-2" d="M19.64,54.49a2.65,2.65,0,1,1-2.73,2.63A2.64,2.64,0,0,1,19.64,54.49Zm0,4.45a1.81,1.81,0,0,0,0-3.61,1.81,1.81,0,0,0,0,3.61Z" transform="translate(-9.56 -8.42)"/><path class="cls-2" d="M23.25,58.91H24V55.57a.19.19,0,0,0-.22-.21H23.2v-.75h1.14c.43,0,.64.19.64.56v.26a1.44,1.44,0,0,1,0,.29h0a2.09,2.09,0,0,1,1.8-1.23,1.35,1.35,0,0,1,1.48,1.19h0a2,2,0,0,1,1.8-1.19c1.12,0,1.65.65,1.65,1.94v2.48h.8v.75H30.75v-3c0-.71-.13-1.27-.89-1.27-.95,0-1.48,1-1.48,2v1.58h.78v.75H27.41v-3c0-.66-.1-1.27-.88-1.27-1,0-1.52,1-1.52,2v1.54h.8v.75H23.25Z" transform="translate(-9.56 -8.42)"/><path class="cls-2" d="M33.25,58.91H34V55.57a.19.19,0,0,0-.22-.21H33.2v-.75h1.14c.43,0,.64.19.64.56v.26a1.44,1.44,0,0,1,0,.29h0a2.09,2.09,0,0,1,1.8-1.23,1.35,1.35,0,0,1,1.48,1.19h0a2,2,0,0,1,1.8-1.19c1.12,0,1.65.65,1.65,1.94v2.48h.8v.75H40.75v-3c0-.71-.13-1.27-.89-1.27-1,0-1.48,1-1.48,2v1.58h.78v.75H37.41v-3c0-.66-.1-1.27-.88-1.27-1,0-1.52,1-1.52,2v1.54h.8v.75H33.25Z" transform="translate(-9.56 -8.42)"/><path class="cls-2" d="M43.82,55.36H43v-.75h1.82v3c0,.7.14,1.26,1,1.26a1.81,1.81,0,0,0,1.64-2V55.36h-.85v-.75h1.82V58.7a.19.19,0,0,0,.21.22h.53v.74H48c-.43,0-.63-.2-.63-.56v-.22a2.19,2.19,0,0,1,0-.3h0a2.07,2.07,0,0,1-1.93,1.2c-1.09,0-1.66-.6-1.66-1.94Z" transform="translate(-9.56 -8.42)"/><path class="cls-2" d="M49.9,58.91h.79V55.58a.2.2,0,0,0-.22-.22h-.62v-.75H51c.44,0,.64.19.64.56v.26a1.44,1.44,0,0,1,0,.29h0a2.13,2.13,0,0,1,2-1.23c1.16,0,1.67.65,1.67,1.94v2.48h.8v.75H54.3v-3c0-.7-.14-1.26-.95-1.26a1.8,1.8,0,0,0-1.69,1.93v1.6h.8v.75H49.9Z" transform="translate(-9.56 -8.42)"/><path class="cls-2" d="M56.79,58.91h.79V55.36h-.84v-.75h1.81v4.3h.8v.75H56.79Zm.77-6.3h1v1h-1Z" transform="translate(-9.56 -8.42)"/><path class="cls-2" d="M62.75,54.49c.75,0,2,.28,2,1.15v.62h-.86v-.35c0-.39-.64-.58-1.09-.58a1.67,1.67,0,0,0-1.72,1.79,1.72,1.72,0,0,0,1.78,1.82,2.57,2.57,0,0,0,1.62-.65l.37.71a3.09,3.09,0,0,1-2,.78,2.65,2.65,0,1,1,0-5.29Z" transform="translate(-9.56 -8.42)"/><path class="cls-2" d="M68.48,56.56h.32v-.19a1,1,0,0,0-1.08-1.08,2.69,2.69,0,0,0-1.45.49l-.39-.69a3.25,3.25,0,0,1,1.92-.6,1.75,1.75,0,0,1,2,1.95v2.25a.2.2,0,0,0,.22.22h.5v.75h-1c-.45,0-.63-.22-.63-.55V59a1.23,1.23,0,0,1,0-.33h0a1.84,1.84,0,0,1-1.67,1.07,1.54,1.54,0,0,1-1.68-1.53C65.53,56.67,67.64,56.56,68.48,56.56ZM67.42,59a1.56,1.56,0,0,0,1.39-1.64v-.2h-.25c-.46,0-2,0-2,1A.85.85,0,0,0,67.42,59Z" transform="translate(-9.56 -8.42)"/><path class="cls-2" d="M71.78,55.36h-.85v-.75h.87V53.22h1v1.39H74v.75H72.75v2.36c0,1,.7,1.16,1.08,1.16h.23v.81a2.73,2.73,0,0,1-.35,0,1.74,1.74,0,0,1-1.93-1.89Z" transform="translate(-9.56 -8.42)"/><path class="cls-2" d="M74.83,58.91h.79V55.36h-.84v-.75h1.81v4.3h.8v.75H74.83Zm.77-6.3h1v1h-1Z" transform="translate(-9.56 -8.42)"/><path class="cls-2" d="M80.84,54.49a2.65,2.65,0,1,1-2.73,2.63A2.63,2.63,0,0,1,80.84,54.49Zm0,4.45a1.81,1.81,0,1,0-1.74-1.82A1.75,1.75,0,0,0,80.84,58.94Z" transform="translate(-9.56 -8.42)"/><path class="cls-2" d="M84.45,58.91h.79V55.58a.2.2,0,0,0-.22-.22H84.4v-.75h1.14c.44,0,.64.19.64.56v.26a1.44,1.44,0,0,1,0,.29h0a2.12,2.12,0,0,1,2-1.23c1.16,0,1.68.65,1.68,1.94v2.48h.8v.75H88.84v-3c0-.7-.14-1.26-.94-1.26a1.8,1.8,0,0,0-1.69,1.93v1.6H87v.75H84.45Z" transform="translate(-9.56 -8.42)"/><path class="cls-2" d="M95.13,55.88v0a1.57,1.57,0,0,1-1-1.55c0-1.17,1-1.82,2.26-1.82a4.42,4.42,0,0,1,.88.11l-.25.79a3.12,3.12,0,0,0-.53-.06c-.76,0-1.35.39-1.35,1.08,0,.46.21,1.13,1.31,1.13H98v-1h1v1h.93v.82h-.93v1a2.29,2.29,0,0,1-2.52,2.47c-1.54,0-2.56-.91-2.56-2.09A1.87,1.87,0,0,1,95.13,55.88Zm1.28,3A1.42,1.42,0,0,0,98,57.27v-.91H96.42c-1,0-1.56.47-1.56,1.25S95.44,58.89,96.41,58.89Z" transform="translate(-9.56 -8.42)"/><path class="cls-2" d="M103.14,58.88H104v-5.5h-.88v-.77h2.77v.77H105v5.5h.89v.78h-2.77Z" transform="translate(-9.56 -8.42)"/><path class="cls-2" d="M106.91,58.91h.79V55.58a.2.2,0,0,0-.22-.22h-.62v-.75H108c.44,0,.64.19.64.56v.26a1.44,1.44,0,0,1,0,.29h0a2.12,2.12,0,0,1,2-1.23c1.16,0,1.68.65,1.68,1.94v2.48h.8v.75H111.3v-3c0-.7-.14-1.26-.94-1.26a1.8,1.8,0,0,0-1.69,1.93v1.6h.8v.75h-2.56Z" transform="translate(-9.56 -8.42)"/><path class="cls-2" d="M113.8,58.91h.79V55.36h-.84v-.75h.84v-.25a1.66,1.66,0,0,1,1.82-1.82,3.26,3.26,0,0,1,.46,0v.8a1.77,1.77,0,0,0-.36,0,.87.87,0,0,0-1,1v.27h1.22v.75h-1.22v3.55h.93v.75H113.8Z" transform="translate(-9.56 -8.42)"/><path class="cls-2" d="M120.2,54.49a2.65,2.65,0,1,1-2.73,2.63A2.63,2.63,0,0,1,120.2,54.49Zm0,4.45a1.81,1.81,0,1,0-1.74-1.82A1.75,1.75,0,0,0,120.2,58.94Z" transform="translate(-9.56 -8.42)"/><path class="cls-2" d="M123.83,58.91h.76V55.58a.2.2,0,0,0-.22-.22h-.63v-.75h1.14c.44,0,.65.18.65.59v.32a2.94,2.94,0,0,1,0,.35h0a1.73,1.73,0,0,1,1.59-1.32,1.55,1.55,0,0,1,.25,0v1a1.13,1.13,0,0,0-.27,0c-1.08,0-1.54,1.09-1.54,2.07v1.34h.75v.75h-2.48Z" transform="translate(-9.56 -8.42)"/><path class="cls-2" d="M128,58.91h.79V55.57a.19.19,0,0,0-.22-.21H128v-.75h1.14c.43,0,.64.19.64.56v.26a1.44,1.44,0,0,1,0,.29h0a2.09,2.09,0,0,1,1.79-1.23A1.35,1.35,0,0,1,133,55.68h0a2,2,0,0,1,1.81-1.19c1.12,0,1.65.65,1.65,1.94v2.48h.8v.75h-1.77v-3c0-.71-.13-1.27-.89-1.27-1,0-1.49,1-1.49,2v1.58H134v.75h-1.76v-3c0-.66-.1-1.27-.88-1.27-.95,0-1.52,1-1.52,2v1.54h.81v.75H128Z" transform="translate(-9.56 -8.42)"/><path class="cls-2" d="M140.84,56.56h.31v-.19a1,1,0,0,0-1.07-1.08,2.65,2.65,0,0,0-1.45.49l-.39-.69a3.25,3.25,0,0,1,1.92-.6,1.75,1.75,0,0,1,2,1.95v2.25a.2.2,0,0,0,.22.22h.51v.75h-1c-.46,0-.64-.22-.64-.55V59a1,1,0,0,1,0-.33h0a1.83,1.83,0,0,1-1.66,1.07,1.54,1.54,0,0,1-1.68-1.53C137.89,56.67,140,56.56,140.84,56.56ZM139.77,59a1.57,1.57,0,0,0,1.4-1.64v-.2h-.25c-.47,0-2,0-2,1A.85.85,0,0,0,139.77,59Z" transform="translate(-9.56 -8.42)"/><path class="cls-2" d="M144.14,55.36h-.85v-.75h.87V53.22h1v1.39h1.2v.75h-1.2v2.36c0,1,.69,1.16,1.08,1.16h.23v.81a3,3,0,0,1-.36,0,1.74,1.74,0,0,1-1.92-1.89Z" transform="translate(-9.56 -8.42)"/><path class="cls-2" d="M147.19,58.91H148V55.36h-.84v-.75h1.8v4.3h.8v.75h-2.55Zm.76-6.3h1v1h-1Z" transform="translate(-9.56 -8.42)"/><path class="cls-2" d="M153.19,54.49a2.65,2.65,0,1,1-2.72,2.63A2.64,2.64,0,0,1,153.19,54.49Zm0,4.45a1.81,1.81,0,0,0,0-3.61,1.81,1.81,0,0,0,0,3.61Z" transform="translate(-9.56 -8.42)"/><path class="cls-2" d="M156.81,58.91h.79V55.58a.2.2,0,0,0-.22-.22h-.62v-.75h1.14c.44,0,.63.19.63.56v.26a2.13,2.13,0,0,1,0,.29h0a2.13,2.13,0,0,1,2-1.23c1.16,0,1.68.65,1.68,1.94v2.48h.8v.75H161.2v-3c0-.7-.14-1.26-.95-1.26a1.8,1.8,0,0,0-1.69,1.93v1.6h.8v.75h-2.55Z" transform="translate(-9.56 -8.42)"/><path class="cls-2" d="M166.25,58.88h.87v-5.5h-.87v-.77h3a5,5,0,0,1,1.5.17A3.28,3.28,0,0,1,173,56.14a3.24,3.24,0,0,1-2.23,3.33,4.68,4.68,0,0,1-1.49.19h-3Zm2.95,0a3.22,3.22,0,0,0,1.2-.18,2.46,2.46,0,0,0,1.54-2.52,2.5,2.5,0,0,0-1.53-2.55,3.38,3.38,0,0,0-1.21-.16h-1.08v5.41Z" transform="translate(-9.56 -8.42)"/><path class="cls-2" d="M176.44,54.49a2.14,2.14,0,0,1,2.19,2.36c0,.13,0,.38,0,.38h-3.69a1.69,1.69,0,0,0,1.74,1.71,2.46,2.46,0,0,0,1.51-.57l.4.71a3.1,3.1,0,0,1-2,.7,2.57,2.57,0,0,1-2.67-2.65A2.47,2.47,0,0,1,176.44,54.49Zm1.19,2.12a1.23,1.23,0,0,0-1.21-1.35,1.5,1.5,0,0,0-1.48,1.35Z" transform="translate(-9.56 -8.42)"/><path class="cls-2" d="M179.45,58h.85v.33c0,.43.6.63,1.16.63s1-.23,1-.65-.56-.67-1.26-.92-1.57-.61-1.57-1.53,1-1.4,1.87-1.4c.7,0,1.74.28,1.74,1v.61h-.85v-.33c0-.31-.4-.52-.89-.52s-.9.2-.9.61.57.68,1.17.89c.78.25,1.67.58,1.67,1.52s-.88,1.49-2,1.49c-.92,0-2-.41-2-1.21Z" transform="translate(-9.56 -8.42)"/><path class="cls-2" d="M184.35,58.91h.78V55.36h-.84v-.75h1.81v4.3h.8v.75h-2.55Zm.76-6.3h1v1h-1Z" transform="translate(-9.56 -8.42)"/><path class="cls-2" d="M189.82,60.94c.88,0,1.6-.4,1.6-1.44v-.4a2,2,0,0,1,0-.32h0a1.65,1.65,0,0,1-1.52.82A2.33,2.33,0,0,1,187.66,57a2.24,2.24,0,0,1,2.21-2.53,1.76,1.76,0,0,1,1.64.83h0a.8.8,0,0,1,0-.2c0-.32.16-.51.58-.51h1.08v.75h-.56a.19.19,0,0,0-.22.2v3.89a2.27,2.27,0,0,1-2.55,2.31,4,4,0,0,1-1.73-.42l.33-.74A3.19,3.19,0,0,0,189.82,60.94ZM191.44,57c0-1.31-.64-1.69-1.43-1.69s-1.37.64-1.37,1.67.55,1.76,1.46,1.76C190.8,58.76,191.44,58.34,191.44,57Z" transform="translate(-9.56 -8.42)"/><path class="cls-2" d="M194,58.91h.8V55.58c0-.15-.08-.22-.23-.22h-.61v-.75h1.13c.44,0,.64.19.64.56v.26a1.44,1.44,0,0,1,0,.29h0a2.1,2.1,0,0,1,2-1.23c1.16,0,1.68.65,1.68,1.94v2.48h.8v.75h-1.77v-3c0-.7-.14-1.26-1-1.26a1.8,1.8,0,0,0-1.69,1.93v1.6h.8v.75H194Z" transform="translate(-9.56 -8.42)"/><path class="cls-3" d="M9.67,8.42H20.54c5.24,0,9,2.91,9,7.92A7.28,7.28,0,0,1,25.69,23v.09c3.25,1,5.1,4.05,5.1,7.52,0,5.86-4.53,8.85-10,8.85H9.67ZM20.54,21.49a4.4,4.4,0,0,0,4.58-4.71,4.28,4.28,0,0,0-4.67-4.57H14v9.28ZM21,35.7a4.93,4.93,0,0,0,5.33-5.28A5,5,0,0,0,21,25.1H14V35.7Z" transform="translate(-9.56 -8.42)"/><path class="cls-3" d="M34.44,8.42h4.27V32.67c0,2.68,1.06,3.17,2.38,3.17a5.9,5.9,0,0,0,.74-.05v3.79a11.68,11.68,0,0,1-1.4.09c-2.42,0-6-.66-6-6.25Z" transform="translate(-9.56 -8.42)"/><path class="cls-3" d="M57,16.69a12.67,12.67,0,0,1,5.94,1.46l1.76-2.42,2.07,1.49L65,19.6a11.34,11.34,0,0,1,4,8.71A11.66,11.66,0,0,1,57,40a13.26,13.26,0,0,1-5.63-1.28l-1.72,2.42-2.11-1.54,1.63-2.29a11.48,11.48,0,0,1-4.18-9C45,21.58,50.33,16.69,57,16.69ZM51.51,34l9.16-12.72a8.1,8.1,0,0,0-3.7-.92,7.67,7.67,0,0,0-7.66,7.92A8.11,8.11,0,0,0,51.51,34ZM62.65,22.94l-9,12.63a7.69,7.69,0,0,0,11-7.26A7.92,7.92,0,0,0,62.65,22.94Z" transform="translate(-9.56 -8.42)"/><path class="cls-3" d="M72.5,17.22h4.14v3a15.34,15.34,0,0,1-.09,1.63h.09a8.69,8.69,0,0,1,7.65-5.11c3.75,0,5.95,1.72,6.69,5.06h.09A9,9,0,0,1,99,16.69c5,0,7.35,2.86,7.35,8.54V39.49h-4.27V26.16c0-3.13-.61-5.59-4-5.59-3.12,0-5.45,2.64-6.25,5.67a13.36,13.36,0,0,0-.3,3.08V39.49H87.29V26.16c0-2.91-.44-5.59-3.87-5.59-3.26,0-5.55,2.68-6.39,5.85a12.28,12.28,0,0,0-.26,2.9V39.49H72.5Z" transform="translate(-9.56 -8.42)"/><path class="cls-3" d="M119.93,16.69a7.8,7.8,0,0,1,7,3.74h.09s0-.66,0-1.54V17.22h4V48.29H126.8V38.12a18.87,18.87,0,0,1,.09-1.93h-.09A7.78,7.78,0,0,1,119.67,40c-6,0-9.81-4.76-9.81-11.66C109.86,21.27,114,16.69,119.93,16.69Zm.58,19.63c3.3,0,6.42-2.33,6.42-8,0-4-2.07-7.92-6.29-7.92-3.52,0-6.43,2.9-6.43,8C114.21,33.2,116.81,36.32,120.51,36.32Z" transform="translate(-9.56 -8.42)"/><path class="cls-3" d="M134.5,17.22H139l5.41,15.05c.44,1.23.71,3,.75,3h.09s.35-1.81.79-3l5.41-15.05H156l-8.23,22.27h-4.93Z" transform="translate(-9.56 -8.42)"/><path class="cls-3" d="M159.58,8.42h4.31v4.36h-4.31Zm0,8.8h4.27V39.49h-4.27Z" transform="translate(-9.56 -8.42)"/><path class="cls-3" d="M169.74,33.72a9.55,9.55,0,0,0,6.38,2.6c1.85,0,3.7-1,3.7-2.77,0-4.09-11.44-3.26-11.44-10.52,0-4.05,3.6-6.34,8.05-6.34,4.88,0,7.17,2.47,7.17,2.47l-1.71,3.21a8.16,8.16,0,0,0-5.51-2c-1.84,0-3.65.79-3.65,2.73,0,4,11.44,3.12,11.44,10.43,0,3.7-3.16,6.47-8,6.47a12,12,0,0,1-8.45-3.26Z" transform="translate(-9.56 -8.42)"/><path class="cls-3" d="M190.11,21h-2.9V17.53h3V11.1h4.14v6.43h5.37V21h-5.37v9.9c0,4.45,3.13,5,4.75,5a5.12,5.12,0,0,0,1-.09v3.79a11.55,11.55,0,0,1-1.5.09c-2.86,0-8.54-.88-8.54-8.32Z" transform="translate(-9.56 -8.42)"/></svg>