<svg xmlns="http://www.w3.org/2000/svg" viewBox="0 0 24.03 25.44"><defs><style>.a{fill:#ff6400;}</style></defs><title>neromotion-logo-n-black</title><path class="a" d="M12,1A12.79,12.79,0,0,1,18,2.42L19.71,0l2.07,1.5L20.07,3.87a11.35,11.35,0,0,1,4,8.72,11.66,11.66,0,0,1-12,11.7A13.25,13.25,0,0,1,6.38,23L4.66,25.44,2.55,23.89l1.63-2.28a11.48,11.48,0,0,1-4.18-9C0,5.85,5.37,1,12,1ZM6.56,18.31,15.71,5.59A8.11,8.11,0,0,0,12,4.66a7.67,7.67,0,0,0-7.65,7.93A8.07,8.07,0,0,0,6.56,18.31ZM17.69,7.22l-9,12.63a7.81,7.81,0,0,0,3.34.74,7.69,7.69,0,0,0,7.66-8A7.89,7.89,0,0,0,17.69,7.22Z"/></svg>