<?xml version="1.0" encoding="UTF-8"?>
<svg width="171px" height="25px" viewBox="0 0 171 25" version="1.1" xmlns="http://www.w3.org/2000/svg" xmlns:xlink="http://www.w3.org/1999/xlink">
    <!-- Generator: Sketch 46.2 (44496) - http://www.bohemiancoding.com/sketch -->
    <title>logo</title>
    <desc>Created with Sketch.</desc>
    <defs></defs>
    <g id="Page-1" stroke="none" stroke-width="1" fill="none" fill-rule="evenodd">
        <g id="projectDetail-HUM" transform="translate(-60.000000, -40.000000)" fill-rule="nonzero">
            <g id="Header">
                <g id="logo" transform="translate(60.000000, 40.000000)">
                    <g id="Group" transform="translate(0.000000, 7.000000)" fill="#000000">
                        <path d="M10.9858065,14.0794872 L13.3277419,14.0794872 L13.3277419,6.93076923 C13.3277419,4.18461538 12.0077419,2.83333333 9.66580645,2.83333333 C6.94064516,2.83333333 5.10967742,4.66410256 5.10967742,7.58461538 L5.10967742,14.0794872 L7.4516129,14.0794872 L7.4516129,16.3025641 L0,16.3025641 L0,14.0794872 L2.34193548,14.0794872 L2.34193548,3.09487179 L0,3.09487179 L0,0.784615385 L5.10967742,0.784615385 L5.10967742,3.4 C6.08903226,1.43846154 8.04774194,0.392307692 10.3470968,0.392307692 C13.6683871,0.392307692 16.0954839,2.57179487 16.0954839,6.75641026 L16.0954839,14.0358974 L18.4374194,14.0358974 L18.4374194,16.2589744 L10.9858065,16.2589744 L10.9858065,14.0794872 Z" id="Shape"></path>
                        <path d="M28.2309677,14.3410256 C30.5729032,14.3410256 31.9354839,13.3820513 32.9574194,12.2923077 L34.6180645,13.9487179 C33.2554839,15.6487179 31.1690323,16.6948718 28.0180645,16.6948718 C23.2490323,16.6948718 19.9703226,13.2076923 19.9703226,8.58717949 C19.9703226,3.92307692 23.4193548,0.435897436 27.8477419,0.435897436 C32.6167742,0.435897436 35.64,4.22820513 35.5122581,9.37179487 L22.8232258,9.37179487 C22.9509677,12.3794872 25.1651613,14.3410256 28.2309677,14.3410256 Z M32.6593548,7.32307692 C32.3187097,4.83846154 30.8283871,2.7025641 27.8477419,2.7025641 C25.1651613,2.7025641 23.2064516,4.57692308 22.8232258,7.32307692 L32.6593548,7.32307692 Z" id="Shape"></path>
                        <path d="M37.3858065,0.784615385 L42.4954839,0.784615385 L42.4954839,3.66153846 C43.4322581,1.35128205 45.0929032,0.435897436 46.9664516,0.435897436 C48.0309677,0.435897436 48.6270968,0.61025641 49.3083871,1.04615385 L48.3716129,3.4 C47.8606452,3.00769231 47.1793548,2.87692308 46.3703226,2.87692308 C44.283871,2.87692308 42.4954839,4.66410256 42.4954839,7.71538462 L42.4954839,14.0794872 L44.9651613,14.0794872 L44.9651613,16.3025641 L37.3858065,16.3025641 L37.3858065,14.0794872 L39.7277419,14.0794872 L39.7277419,3.09487179 L37.3858065,3.09487179 L37.3858065,0.784615385 Z" id="Shape"></path>
                        <path d="M49.8193548,8.54358974 C49.8193548,3.92307692 53.396129,0.435897436 57.8245161,0.435897436 C62.3380645,0.435897436 65.8722581,3.92307692 65.8722581,8.58717949 C65.8722581,13.2076923 62.3380645,16.6948718 57.8245161,16.6948718 C53.396129,16.6512821 49.8193548,13.1641026 49.8193548,8.54358974 Z M63.0193548,8.54358974 C63.0193548,5.14358974 60.8477419,2.7025641 57.8245161,2.7025641 C54.8012903,2.7025641 52.6722581,5.14358974 52.6722581,8.54358974 C52.6722581,11.9 54.8012903,14.3410256 57.8245161,14.3410256 C60.8477419,14.3410256 63.0193548,11.9 63.0193548,8.54358974 Z" id="Shape"></path>
                    </g>
                    <g id="Group" transform="translate(68.000000, 0.000000)" fill="#000000">
                        <path d="M10.3212435,22.0285714 L13.2025907,22.0285714 L13.2025907,13.4571429 C13.2025907,10.5 11.6974093,8.95714286 9.20310881,8.95714286 C6.27875648,8.95714286 4.47253886,10.7571429 4.47253886,14.0142857 L4.47253886,21.9857143 L7.35388601,21.9857143 L7.35388601,23.2285714 L0.172020725,23.2285714 L0.172020725,21.9857143 L3.05336788,21.9857143 L3.05336788,9.3 L0.172020725,9.3 L0.172020725,8.05714286 L4.47253886,8.05714286 L4.47253886,10.4142857 C5.24663212,8.78571429 7.00984456,7.67142857 9.20310881,7.67142857 C11.2673575,7.67142857 13.2025907,8.65714286 14.1487047,10.7142857 C15.2668394,8.7 16.9870466,7.67142857 19.438342,7.67142857 C22.3626943,7.67142857 24.8139896,9.6 24.8139896,13.1571429 L24.8139896,21.9857143 L27.6953368,21.9857143 L27.6953368,23.2285714 L20.5134715,23.2285714 L20.5134715,21.9857143 L23.3948187,21.9857143 L23.3948187,13.4142857 C23.3948187,10.4571429 21.8036269,8.95714286 19.4813472,8.95714286 C16.5139896,8.95714286 14.707772,10.7571429 14.707772,13.8857143 L14.707772,22.0285714 L17.5891192,22.0285714 L17.5891192,23.2714286 L10.3212435,23.2714286 L10.3212435,22.0285714 Z" id="Shape"></path>
                        <path d="M29.3295337,15.6857143 C29.3295337,11.1857143 32.8129534,7.71428571 37.1994819,7.71428571 C41.5430052,7.71428571 45.0694301,11.1857143 45.0694301,15.6857143 C45.0694301,20.1857143 41.5860104,23.6571429 37.1994819,23.6571429 C32.8559585,23.6571429 29.3295337,20.1857143 29.3295337,15.6857143 Z M43.5642487,15.6857143 C43.5642487,11.8714286 40.8979275,8.95714286 37.1994819,8.95714286 C33.5010363,8.95714286 30.834715,11.8714286 30.834715,15.6857143 C30.834715,19.5 33.5010363,22.4142857 37.1994819,22.4142857 C40.8979275,22.4142857 43.5642487,19.5 43.5642487,15.6857143 Z" id="Shape"></path>
                        <path d="M47.3917098,9.3 L47.3917098,8.05714286 L49.5419689,8.05714286 L49.5419689,1.8 L50.9611399,1.8 L50.9611399,8.05714286 L54.9606218,8.05714286 L54.9606218,9.3 L50.9611399,9.3 L50.9611399,19.9714286 C50.9611399,21.3857143 51.4772021,22.3714286 52.8963731,22.3714286 C53.6704663,22.3714286 54.4015544,21.9857143 54.8746114,21.6 L55.6056995,22.6714286 C54.9176166,23.2714286 53.9284974,23.6571429 52.9393782,23.6571429 C50.8321244,23.6571429 49.5849741,22.2857143 49.5849741,20.1857143 L49.5849741,9.3 L47.3917098,9.3 Z" id="Shape"></path>
                        <path d="M57.7129534,8.05714286 L62.0134715,8.05714286 L62.0134715,22.0285714 L64.8948187,22.0285714 L64.8948187,23.2714286 L57.7129534,23.2714286 L57.7129534,22.0285714 L60.5943005,22.0285714 L60.5943005,9.3 L57.7129534,9.3 L57.7129534,8.05714286 Z M60.1212435,1.54285714 C60.1212435,0.857142857 60.6803109,0.342857143 61.3253886,0.342857143 C61.9704663,0.342857143 62.5295337,0.857142857 62.5295337,1.54285714 C62.5295337,2.22857143 61.9704663,2.74285714 61.3253886,2.74285714 C60.6803109,2.74285714 60.1212435,2.18571429 60.1212435,1.54285714 Z" id="Shape"></path>
                        <path d="M66.873057,15.6857143 C66.873057,11.1857143 70.3564767,7.71428571 74.7430052,7.71428571 C79.1295337,7.71428571 82.6129534,11.1857143 82.6129534,15.6857143 C82.6129534,20.1857143 79.1295337,23.6571429 74.7430052,23.6571429 C70.3564767,23.6571429 66.873057,20.1857143 66.873057,15.6857143 Z M81.107772,15.6857143 C81.107772,11.8714286 78.4414508,8.95714286 74.7430052,8.95714286 C71.0445596,8.95714286 68.3782383,11.8714286 68.3782383,15.6857143 C68.3782383,19.5 71.0445596,22.4142857 74.7430052,22.4142857 C78.4414508,22.4142857 81.107772,19.5 81.107772,15.6857143 Z" id="Shape"></path>
                    </g>
                    <rect id="Rectangle-path" fill="#ED2224" x="164" y="22.7999992" width="7" height="1.25"></rect>
                    <path d="M161.989189,9.36263736 C164.886486,9.36263736 166.572973,10.9450549 166.572973,14.5494505 L166.572973,21.4505495 L168,21.4505495 L168,14.2857143 C168,9.97802198 165.362162,8 162.032432,8 C159.524324,8 157.362162,9.27472527 156.324324,11.3406593 L156.324324,8.3956044 L152,8.3956044 L152,9.67032967 L154.897297,9.67032967 L154.897297,22.7252747 L152,22.7252747 L152,24 L159.221622,24 L159.221622,22.7252747 L156.324324,22.7252747 L156.324324,15.1208791 C156.324324,11.5604396 158.702703,9.36263736 161.989189,9.36263736 Z" id="Shape" fill="#000000"></path>
                </g>
            </g>
        </g>
    </g>
</svg>